<svg width="92" height="26" fill="none" xmlns="http://www.w3.org/2000/svg"><path d="M3.573 19.586H.833V7.616h2.576v1.958c.547-.834 1.166-1.44 1.856-1.819.698-.387 1.52-.58 2.462-.58.934 0 1.709.197 2.323.593.614.387 1.082.98 1.401 1.78.632-.825 1.301-1.426 2.008-1.805.716-.379 1.528-.568 2.437-.568.791 0 1.481.147 2.07.442.59.286 1.049.707 1.377 1.262.151.261.26.573.328.934.076.362.114.88.114 1.553v8.22h-2.74v-6.149c0-1.608-.173-2.664-.518-3.169-.337-.513-.943-.77-1.818-.77-1.077 0-1.848.345-2.31 1.035-.455.682-.682 1.881-.682 3.599v5.454H8.952v-6.149c0-1.481-.181-2.508-.543-3.08-.354-.573-.968-.86-1.844-.86-.538 0-1.03.123-1.477.367-.446.244-.8.58-1.06 1.01a2.87 2.87 0 0 0-.354 1.023c-.067.404-.101 1.149-.101 2.235v5.454ZM34.721 19.586h-2.74v-1.553c-.488.69-1.06 1.204-1.717 1.54-.648.337-1.393.505-2.235.505-1.691 0-3.026-.576-4.002-1.73-.968-1.16-1.452-2.748-1.452-4.76 0-1.91.497-3.45 1.49-4.62.993-1.179 2.29-1.768 3.889-1.768.976 0 1.81.206 2.5.619a3.546 3.546 0 0 1 1.527 1.755V7.617h2.74v11.969Zm-2.664-6.023c0-1.237-.29-2.2-.871-2.891-.572-.69-1.376-1.035-2.412-1.035-1.035 0-1.851.357-2.449 1.073-.59.707-.884 1.692-.884 2.954 0 1.271.286 2.252.859 2.942.572.69 1.38 1.036 2.424 1.036.985 0 1.784-.375 2.399-1.124.623-.75.934-1.734.934-2.955ZM47.107 13.563c0-1.237-.29-2.2-.87-2.891-.573-.69-1.377-1.035-2.412-1.035-1.036 0-1.852.357-2.45 1.073-.589.707-.884 1.692-.884 2.954 0 1.271.287 2.252.859 2.942.572.69 1.38 1.036 2.424 1.036.985 0 1.785-.375 2.4-1.124.622-.75.933-1.734.933-2.955Zm2.665 5.278c0 2.34-.468 3.986-1.402 4.937-.934.96-2.508 1.44-4.722 1.44-1.65 0-2.967-.35-3.952-1.049-.985-.69-1.486-1.612-1.502-2.765l2.941-.012c.042.513.282.904.72 1.174.438.27 1.052.404 1.843.404 1.17 0 2.012-.257 2.526-.77.513-.514.774-1.372.782-2.576l.026-1.591c-.488.69-1.06 1.204-1.717 1.54-.649.337-1.393.505-2.235.505-1.692 0-3.026-.576-4.003-1.73-.968-1.16-1.452-2.748-1.452-4.76 0-1.91.497-3.45 1.49-4.62.993-1.179 2.29-1.768 3.889-1.768.976 0 1.81.206 2.5.619a3.546 3.546 0 0 1 1.528 1.755V7.617h2.74V18.84ZM65.011 20.306l-2.765-6.225c-.21-.48-.383-.905-.518-1.275-.134-.379-.256-.75-.366-1.111-.185.547-.35 1.018-.492 1.414-.143.387-.257.678-.341.871l-2.84 6.326-6.2-12.69h2.916l2.69 5.77c.11.245.214.581.315 1.01.11.422.202.889.278 1.402.008-.303.059-.618.152-.947.092-.328.248-.732.467-1.212l2.929-6.464h.227l2.98 6.464c.185.404.32.779.404 1.124.093.345.147.69.164 1.035.076-.454.173-.884.29-1.288a7.9 7.9 0 0 1 .405-1.098l2.638-5.795h2.892L65.01 20.306ZM84.215 19.586h-2.74v-1.553c-.488.69-1.06 1.204-1.717 1.54-.648.337-1.393.505-2.234.505-1.692 0-3.026-.576-4.003-1.73-.968-1.16-1.452-2.748-1.452-4.76 0-1.91.497-3.45 1.49-4.62.993-1.179 2.29-1.768 3.889-1.768.976 0 1.81.206 2.5.619a3.547 3.547 0 0 1 1.528 1.755V7.617h2.74v11.969Zm-2.664-6.023c0-1.237-.29-2.2-.87-2.891-.573-.69-1.377-1.035-2.412-1.035-1.036 0-1.852.357-2.45 1.073-.59.707-.884 1.692-.884 2.954 0 1.271.286 2.252.859 2.942.572.69 1.38 1.036 2.424 1.036.985 0 1.784-.375 2.399-1.124.623-.75.934-1.734.934-2.955ZM87.763 2.44c0-.463.169-.863.505-1.2a1.695 1.695 0 0 1 1.225-.505c.488 0 .892.164 1.212.493.328.32.493.724.493 1.212s-.165.9-.493 1.237a1.647 1.647 0 0 1-1.212.493c-.471 0-.88-.169-1.225-.505a1.695 1.695 0 0 1-.505-1.225Zm.366 17.146V7.616h2.74v11.97h-2.74Z" fill="#fff"/></svg>