<svg width="58" height="60" fill="none" xmlns="http://www.w3.org/2000/svg"><path d="M18.577 11.77s-7.635.056-8.337.138c-1.35.155-4.345.816-5.579 3.288-1.68 3.368 1.483 8.14 1.483 8.14l3.976 6.358" stroke="#BFECFF" stroke-width="1.5" stroke-linecap="round"/><path d="M14.17 48.126a2.115 2.115 0 1 0-2.242-3.587l-1.196.747a2.115 2.115 0 0 0 2.242 3.587l1.195-.747ZM23.035 31.501a2.115 2.115 0 0 0-2.241-3.586L9.236 35.139a2.115 2.115 0 0 0 2.241 3.586l11.558-7.224ZM27.185 39.993a2.115 2.115 0 0 0-2.242-3.587l-6.604 4.128a2.115 2.115 0 0 0 2.241 3.586l6.605-4.127ZM51.532 29.213a1.645 1.645 0 1 0-1.744-2.79 1.645 1.645 0 0 0 1.744 2.79Z" fill="#fff"/><path fill-rule="evenodd" clip-rule="evenodd" d="M41.967 35.374c-1.173 2.373-2.517 5.099-3.722 7.543-1.69 3.426-3.106 6.3-3.4 6.88-1.118 2.223-2.207 2.974-3.521 2.844-1.018-.092-2.361-1.372-2.45-3.92-.09-2.549-.396-9.53-5.759-6.178-.092-.148-.137-.376-.186-.622-.057-.29-.12-.606-.27-.847-1.25-2.002-6.398-10.32-6.024-10.554.373-.233 2.098-1.834 1.016-3.673-.932-1.583-2.457-2.488-4.107-3.467-.267-.158-.537-.319-.808-.484-2.504-1.606-3.084-2.85-2.499-4.513.743-1.568 3.192-1.563 4.195-1.53.982.032 8.48.07 15.99.083l-4.893 13.42a3.556 3.556 0 0 0 .076 2.41 3.394 3.394 0 0 0 2.194 1.222l14.165 1.383.003.003Zm-5.875-18.435a2.12 2.12 0 0 0-1.555 1.293c-1.723 3.93-2.204 5.181-2.889 6.962-.154.402-.319.83-.51 1.322l-.099.277c-.294.823-.838 2.341-.46 2.944.323.518 1.05.592 2.432.733a559.067 559.067 0 0 0 9.758.933 2.432 2.432 0 0 0 1.54-.756l.365-.728 3.582-7.129.037-.074c.73-1.45 2.969-5.893-3.717-5.813-1.913.024-4.999.034-8.484.036Z" fill="#fff"/><path d="M54.359 22.087s2.462-3.857.497-7.068c-1.965-3.21-7.564-3.259-7.564-3.259l-20.818.112" stroke="#FE60B7" stroke-width="1.5" stroke-linecap="round"/><path d="M21.782 48.676s4.108 6.613 4.31 6.898c.564.794 2.934 3.76 6.108 3.456 3.747-.359 6.12-5.569 6.12-5.569l9.858-19.737" stroke="#A072FD" stroke-width="1.5" stroke-linecap="round"/></svg>